HIERARCHY
ROOT Hips
{
  OFFSET 0.265311 15.6932 -0.0207187
  CHANNELS 6 Xposition Yposition Zposition Zrotation Xrotation Yrotation
  JOINT LHipJoint
  {
    OFFSET 0 0 0
    CHANNELS 6 Xposition Yposition Zposition Zrotation Xrotation Yrotation
    JOINT LeftUpLeg
    {
      OFFSET 1.36306 -1.79463 0.83929
      CHANNELS 6 Xposition Yposition Zposition Zrotation Xrotation Yrotation
      JOINT LeftLeg
      {
        OFFSET 2.44811 -6.72613 0
        CHANNELS 6 Xposition Yposition Zposition Zrotation Xrotation Yrotation
        JOINT LeftFoot
        {
          OFFSET 2.5622 -7.03959 0
          CHANNELS 6 Xposition Yposition Zposition Zrotation Xrotation Yrotation
          JOINT LeftToeBase
          {
            OFFSET 0.15764 -0.43311 2.32255
            CHANNELS 6 Xposition Yposition Zposition Zrotation Xrotation Yrotation
            End Site
            {
              OFFSET 0 0 0
            }
          }
        }
      }
    }
  }
  JOINT RHipJoint
  {
    OFFSET 0 0 0
    CHANNELS 6 Xposition Yposition Zposition Zrotation Xrotation Yrotation
    JOINT RightUpLeg
    {
      OFFSET -1.30552 -1.79463 0.83929
      CHANNELS 6 Xposition Yposition Zposition Zrotation Xrotation Yrotation
      JOINT RightLeg
      {
        OFFSET -2.54253 -6.98555 0
        CHANNELS 6 Xposition Yposition Zposition Zrotation Xrotation Yrotation
        JOINT RightFoot
        {
          OFFSET -2.56826 -7.05623 0
          CHANNELS 6 Xposition Yposition Zposition Zrotation Xrotation Yrotation
          JOINT RightToeBase
          {
            OFFSET -0.16473 -0.45259 2.36315
            CHANNELS 6 Xposition Yposition Zposition Zrotation Xrotation Yrotation
            End Site
            {
              OFFSET 0 0 0
            }
          }
        }
      }
    }
  }
  JOINT LowerBack
  {
    OFFSET 0 0 0
    CHANNELS 6 Xposition Yposition Zposition Zrotation Xrotation Yrotation
    JOINT Spine
    {
      OFFSET 0.02827 2.03559 -0.19338
      CHANNELS 6 Xposition Yposition Zposition Zrotation Xrotation Yrotation
      JOINT Spine1
      {
        OFFSET 0.05672 2.04885 -0.04275
        CHANNELS 6 Xposition Yposition Zposition Zrotation Xrotation Yrotation
        JOINT Neck
        {
          OFFSET 0 0 0
          CHANNELS 6 Xposition Yposition Zposition Zrotation Xrotation Yrotation
          JOINT Neck1
          {
            OFFSET -0.05417 1.74624 0.17202
            CHANNELS 6 Xposition Yposition Zposition Zrotation Xrotation Yrotation
            JOINT Head
            {
              OFFSET 0.10407 1.76136 -0.12397
              CHANNELS 6 Xposition Yposition Zposition Zrotation Xrotation Yrotation
              End Site
              {
                OFFSET 0 0 0
              }
            }
          }
        }
        JOINT LeftShoulder
        {
          OFFSET 0 0 0
          CHANNELS 6 Xposition Yposition Zposition Zrotation Xrotation Yrotation
          JOINT LeftArm
          {
            OFFSET 3.36241 1.20089 -0.31121
            CHANNELS 6 Xposition Yposition Zposition Zrotation Xrotation Yrotation
            JOINT LeftForeArm
            {
              OFFSET 4.983 0 0
              CHANNELS 6 Xposition Yposition Zposition Zrotation Xrotation Yrotation
              JOINT LeftHand
              {
                OFFSET 3.48356 0 0
                CHANNELS 6 Xposition Yposition Zposition Zrotation Xrotation Yrotation
                JOINT LeftFingerBase
                {
                  OFFSET 0 0 0
                  CHANNELS 6 Xposition Yposition Zposition Zrotation Xrotation Yrotation
                  JOINT LeftHandIndex1
                  {
                    OFFSET 0.71526 0 0
                    CHANNELS 6 Xposition Yposition Zposition Zrotation Xrotation Yrotation
                    End Site
                    {
                      OFFSET 0 0 0
                    }
                  }
                }
                JOINT LThumb
                {
                  OFFSET 0 0 0
                  CHANNELS 6 Xposition Yposition Zposition Zrotation Xrotation Yrotation
                  End Site
                  {
                    OFFSET 0 0 0
                  }
                }
              }
            }
          }
        }
        JOINT RightShoulder
        {
          OFFSET 0 0 0
          CHANNELS 6 Xposition Yposition Zposition Zrotation Xrotation Yrotation
          JOINT RightArm
          {
            OFFSET -3.1366 1.37405 -0.40465
            CHANNELS 6 Xposition Yposition Zposition Zrotation Xrotation Yrotation
            JOINT RightForeArm
            {
              OFFSET -5.2419 0 0
              CHANNELS 6 Xposition Yposition Zposition Zrotation Xrotation Yrotation
              JOINT RightHand
              {
                OFFSET -3.44417 0 0
                CHANNELS 6 Xposition Yposition Zposition Zrotation Xrotation Yrotation
                JOINT RightFingerBase
                {
                  OFFSET 0 0 0
                  CHANNELS 6 Xposition Yposition Zposition Zrotation Xrotation Yrotation
                  JOINT RightHandIndex1
                  {
                    OFFSET -0.62253 0 0
                    CHANNELS 6 Xposition Yposition Zposition Zrotation Xrotation Yrotation
                    End Site
                    {
                      OFFSET 0 0 0
                    }
                  }
                }
                JOINT RThumb
                {
                  OFFSET 0 0 0
                  CHANNELS 6 Xposition Yposition Zposition Zrotation Xrotation Yrotation
                  End Site
                  {
                    OFFSET 0 0 0
                  }
                }
              }
            }
          }
        }
      }
    }
  }
}
MOTION
Frames:	4
Frame Time:	0.00833333
0.275723 15.6315 129.883 -0.866795 8.7154 2.34659 0 0 0 -0.299681 5.35791 18.0368 1.36306 -1.79463 0.83929 -24.4065 -46.5317 -18.442 2.44811 -6.72613 0 -12.1856 69.4243 53.5174 2.5622 -7.03959 7.10543e-015 -15.3243 -1.21666 -5.25128 0.15764 -0.43311 2.32255 -0.0457526 -0.444745 -0.23782 0 0 0 -8.85582 0.425549 -20.6242 -1.30552 -1.79463 0.83929 52.8787 -23.6583 30.8734 -2.54253 -6.98555 0 -5.79422 57.1605 -45.0722 -2.56826 -7.05623 0 21.7279 3.0669 5.52448 -0.16473 -0.45259 2.36315 -0.00668383 0.576242 -0.301046 0 0 0 -1.93281 -2.12354 0.12108 0.02827 2.03559 -0.19338 7.75151 45.1518 8.76086 0.05672 2.04885 -0.04275 6.41546 -2.29585 10.3854 0 0 0 -0.919938 -9.76367 -0.0260398 -0.05417 1.74624 0.17202 2.53423 27.0573 -1.30093 0.10407 1.76136 -0.12397 -0.0798676 -1.01981 0.135808 0 0 0 13.4734 -5.20459 23.2288 3.36241 1.20089 -0.31121 -89.0032 37.4818 10.4532 4.983 -7.10543e-015 7.10543e-015 -20.9001 -1.07136 -49.6616 3.48356 8.88178e-016 0 0.625481 -0.336284 0.0863041 0 0 0 -0.121029 -5.06546e-007 -1.14815 0.71526 0 -1.42109e-014 9.93923e-016 7.95139e-016 4.77083e-015 0 0 0 3.97569e-016 0 1.59028e-015 0 0 0 -13.7901 -3.38891 -21.4033 -3.1366 1.37405 -0.40465 68.9502 5.78796 36.1059 -5.2419 0 1.42109e-014 -12.4934 31.154 77.9866 -3.44417 1.42109e-014 0 -4.57709 -0.303961 0.478997 0 0 0 0.388209 -6.05242e-006 2.4941 -0.62253 -1.42109e-014 0 -9.54166e-015 5.56597e-015 -3.97569e-015 0 0 0 -1.27222e-014 1.19271e-014 -4.77083e-015 
0.265311 15.6932 130.034 -0.588406 8.61956 2.50124 0 0 0 -0.299681 5.35791 18.0368 1.36306 -1.79463 0.83929 -25.1707 -46.4981 -18.6339 2.44811 -6.72613 0 -10.2433 67.9535 50.9721 2.5622 -7.03959 0 -15.5417 -0.619481 -4.92619 0.15764 -0.43311 2.32255 1.15582e-007 -3.66448e-006 -1.66727e-007 0 0 0 -8.85582 0.425549 -20.6242 -1.30552 -1.79463 0.83929 51.798 -22.7372 30.0256 -2.54253 -6.98555 1.42109e-014 -6.10453 56.6407 -44.3623 -2.56826 -7.05623 0 21.8323 2.98351 5.56251 -0.16473 -0.45259 2.36315 3.06716e-006 9.2288e-007 7.38377e-007 0 0 0 -1.93281 -2.12354 0.12108 0.02827 2.03559 -0.19338 7.65033 45.0083 8.81719 0.05672 2.04885 -0.04275 6.24984 -2.56094 10.4237 0 0 0 -1.00718 -9.92041 -0.0272249 -0.05417 1.74624 0.17202 2.43783 26.9012 -1.27787 0.10407 1.76136 -0.12397 7.95139e-016 6.36111e-015 -2.78299e-015 0 0 0 13.4913 -5.40754 23.2949 3.36241 1.20089 -0.31121 -87.7462 37.4135 9.53487 4.983 0 -7.10543e-015 -21.9553 -1.75335 -48.7053 3.48356 1.77636e-015 1.42109e-014 1.15777 -0.238326 -0.259715 0 0 0 -0.121029 -5.06546e-007 -1.14815 0.71526 0 0 1.19271e-015 0 4.77083e-015 0 0 0 -1.78906e-015 0 1.59028e-015 0 0 0 -13.8327 -3.67342 -21.4536 -3.1366 1.37405 -0.40465 68.7584 6.76196 34.9079 -5.2419 0 -1.42109e-014 -13.455 32.0122 78.6853 -3.44417 1.42109e-014 0 -4.38726 -0.419582 0.110908 0 0 0 0.388209 -6.05242e-006 2.4941 -0.62253 0 0 -3.18055e-015 -6.36111e-015 3.97569e-015 0 0 0 8.93816e-031 -7.15625e-015 7.15625e-015 
0.249298 15.7855 130.323 -0.163573 8.41172 2.75841 0 0 0 -0.299681 5.35791 18.0368 1.36306 -1.79463 0.83929 -26.2119 -46.2191 -18.8045 2.44811 -6.72613 0 -7.89632 65.7479 47.635 2.5622 -7.03959 0 -15.885 0.718 -4.20056 0.15764 -0.43311 2.32255 0.256054 1.0252 0.63325 0 0 0 -8.85582 0.425549 -20.6242 -1.30552 -1.79463 0.83929 50.2603 -21.4605 28.885 -2.54253 -6.98555 0 -6.3517 56.1225 -43.1841 -2.56826 -7.05623 -1.42109e-014 21.7761 3.03076 5.49112 -0.16473 -0.45259 2.36315 0.039255 -1.34678 0.672162 0 0 0 -1.93281 -2.12354 0.12108 0.02827 2.03559 -0.19338 7.51085 44.754 8.90157 0.05672 2.04885 -0.04275 6.00024 -3.12302 10.4953 0 0 0 -1.17825 -10.2541 -0.0178887 -0.05417 1.74624 0.17202 2.24277 26.5692 -1.21856 0.10407 1.76136 -0.12397 0.272609 1.96812 -0.204313 0 0 0 13.5377 -5.86045 23.4458 3.36241 1.20089 -0.31121 -85.9136 37.1833 8.66041 4.983 0 -7.10543e-015 -23.0186 -2.60846 -48.4666 3.48356 0 -1.42109e-014 1.7013 -0.189939 -0.421587 0 0 0 -0.121029 -5.06546e-007 -1.14815 0.71526 -3.55271e-015 0 1.39149e-015 3.18055e-015 -1.59028e-015 0 0 0 1.98785e-015 3.18055e-015 -0 0 0 0 -13.9396 -4.1644 -21.6275 -3.1366 1.37405 -0.40465 68.5536 7.97339 33.1975 -5.2419 1.42109e-014 1.42109e-014 -13.3052 33.0814 77.897 -3.44417 0 -3.55271e-015 -3.32734 -0.592017 -0.272459 0 0 0 0.388209 -6.05242e-006 2.4941 -0.62253 -1.42109e-014 3.55271e-015 6.36111e-015 -4.77083e-015 1.19271e-015 0 0 0 -3.18055e-015 2.38542e-015 -2.38542e-015 
0.230402 15.8948 130.701 0.357591 8.11162 3.09486 0 0 0 -0.299681 5.35791 18.0368 1.36306 -1.79463 0.83929 -27.2949 -45.6309 -18.8333 2.44811 -6.72613 0 -5.74856 62.9376 44.2567 2.5622 -7.03959 1.42109e-014 -16.3749 2.59284 -3.1886 0.15764 -0.43311 2.32255 0.588721 2.52148 1.55953 0 0 0 -8.85582 0.425549 -20.6242 -1.30552 -1.79463 0.83929 48.4638 -19.9406 27.5805 -2.54253 -6.98555 1.42109e-014 -6.5171 55.6292 -41.7084 -2.56826 -7.05623 1.42109e-014 21.5985 3.19071 5.33246 -0.16473 -0.45259 2.36315 0.148404 -3.24889 1.61615 0 0 0 -1.93281 -2.12354 0.12108 0.02827 2.03559 -0.19338 7.32779 44.4319 8.99564 0.05672 2.04885 -0.04275 5.73156 -3.89148 10.5814 0 0 0 -1.3967 -10.7147 -0.0033467 -0.05417 1.74624 0.17202 1.99264 26.1111 -1.13888 0.10407 1.76136 -0.12397 0.688021 4.64933 -0.454607 0 0 0 13.6412 -6.50961 23.6165 3.36241 1.20089 -0.31121 -83.8288 36.6904 7.93508 4.983 0 0 -23.9517 -3.3229 -48.8158 3.48356 0 0 2.12062 -0.166599 -0.501538 0 0 0 -0.121029 -5.06546e-007 -1.14815 0.71526 -1.77636e-015 0 -3.37934e-015 0 -0 0 0 0 -5.36719e-015 0 -0 0 0 0 -14.0729 -4.77689 -21.922 -3.1366 1.37405 -0.40465 68.4162 9.38109 30.9656 -5.2419 7.10543e-015 0 -12.286 34.1845 75.9429 -3.44417 1.42109e-014 0 -1.71262 -0.775673 -0.545004 0 0 0 0.388209 -6.05242e-006 2.4941 -0.62253 -1.42109e-014 0 -3.18055e-015 -2.38542e-015 3.97569e-016 0 0 0 -6.36111e-015 1.59028e-015 -3.18055e-015 
